<svg width="915" height="193" viewBox="0 0 915 193" fill="none" xmlns="http://www.w3.org/2000/svg">
<path d="M1.40625 49.5625L29.9531 148H34.1719L38.5312 134.219L13.7812 49.5625H1.40625ZM35.1562 100.469L40.5 119.172H41.9062C43.4062 114.297 47.8594 98.5 55.2656 71.7812L76.2188 148H80.4375L84.7969 134.781L61.4531 49.5625H49.0781L35.1562 100.469ZM82.5469 100.469L88.0312 119.172H89.4375L109.969 49.5625H97.5938L82.5469 100.469ZM116.719 127.188V92.4531C116.719 88.0469 118.688 83.7344 122.625 79.5156C127.5 74.4531 133.594 71.9219 140.906 71.9219V83.3125C135.375 83.3125 131.531 85.6094 129.375 90.2031C128.719 91.6094 128.391 93.0156 128.391 94.4219V125.359C128.391 128.828 129.984 131.781 133.172 134.219C135.422 135.906 138 136.75 140.906 136.75V148.141C132 148.141 125.109 144.531 120.234 137.312C117.891 133.75 116.719 130.375 116.719 127.188ZM146.953 148.141V136.75C151.922 136.75 155.484 134.5 157.641 130C158.391 128.5 158.766 127.047 158.766 125.641V94.4219C158.766 90.5781 157.125 87.5312 153.844 85.2812C151.781 83.9688 149.438 83.3125 146.812 83.3125V71.9219C155.438 71.9219 162.094 75.4375 166.781 82.4688C169.125 85.9375 170.297 89.2656 170.297 92.4531V127.188C170.297 131.781 168.328 136.234 164.391 140.547C159.797 145.516 153.984 148.047 146.953 148.141ZM181.547 148V48.7188H194.062V148H181.547ZM203.203 89.6406V78.1094H212.484V69.9531C212.484 64.7031 214.219 59.9219 217.688 55.6094C221.531 51.1094 226.5 48.8125 232.594 48.7188H237.797L235.125 60.1094H232.453C227.109 60.3906 224.391 63.6719 224.297 69.9531V78.25L233.859 78.1094V89.6406H224.297V148H212.484V89.6406H203.203ZM245.109 148V48.5781H257.203V148H245.109ZM264.094 148V136.609H275.203C278.859 136.609 281.953 134.969 284.484 131.688C285.703 130 286.312 128.406 286.312 126.906V92.875C286.312 90.0625 284.766 87.5781 281.672 85.4219C279.609 84.0156 277.5 83.3125 275.344 83.3125H264.094V71.9219H275.344C282.844 71.9219 288.938 75.0625 293.625 81.3438C296.344 85 297.75 88.6562 297.844 92.3125V127.188C297.844 131.5 295.969 135.812 292.219 140.125C287.625 145.281 281.906 147.906 275.062 148H264.094ZM307.547 127.188V92.3125C307.641 88 309.703 83.7344 313.734 79.5156C318.609 74.5469 324.516 72.0156 331.453 71.9219V83.0312C326.953 83.0312 323.438 85 320.906 88.9375C319.875 90.625 319.359 92.1719 319.359 93.5781V103.141H350.859V93.5781C350.859 89.3594 348.703 86.2656 344.391 84.2969C342.422 83.3594 340.406 82.8906 338.344 82.8906V71.9219C344.812 71.9219 350.578 74.2188 355.641 78.8125C359.859 82.8438 362.016 87.2969 362.109 92.1719V114.531H319.359V127.188C319.359 129.812 320.859 132.25 323.859 134.5C326.297 136.188 328.875 137.031 331.594 137.031V148C323.062 148 316.359 144.531 311.484 137.594C308.859 133.938 307.547 130.469 307.547 127.188ZM338.344 148V136.891C343.969 136.891 348.188 134.453 351 129.578C351.562 128.547 351.984 127.562 352.266 126.625L362.25 130.281C360.562 136.75 356.719 141.625 350.719 144.906C346.875 146.969 342.75 148 338.344 148ZM370.688 128.031L381.797 125.922C381.797 130.141 384 133.469 388.406 135.906C390.562 136.938 392.625 137.5 394.594 137.594V148.703C385.5 148.703 378.703 145.422 374.203 138.859C371.859 135.391 370.688 131.781 370.688 128.031ZM371.391 93.4375C371.391 84.9062 375.281 78.5781 383.062 74.4531C386.812 72.4844 390.562 71.5 394.312 71.5V82.4688C390 82.4688 386.672 84.25 384.328 87.8125C383.109 89.5938 382.5 91.4688 382.5 93.4375C382.5 96.4375 384.844 98.875 389.531 100.75C393.094 102.25 399.984 104.219 410.203 106.656C416.578 107.969 421.125 111.109 423.844 116.078C425.25 118.703 425.953 121.656 425.953 124.938C425.953 133.938 422.344 140.594 415.125 144.906C410.906 147.438 406.078 148.703 400.641 148.703V137.594C404.953 137.594 408.562 136.094 411.469 133.094C413.531 130.938 414.562 128.406 414.562 125.5C414.562 121.75 410.859 118.75 403.453 116.5C401.578 115.938 398.578 115.141 394.453 114.109C390.047 113.078 386.859 112.234 384.891 111.578C377.766 108.766 373.453 104.5 371.953 98.7812C371.578 97.0938 371.391 95.3125 371.391 93.4375ZM400.5 82.6094V71.5C408.562 71.5 415.078 74.5 420.047 80.5C423.141 84.3438 424.688 88.375 424.688 92.5938L413.578 94.4219C413.578 89.2656 410.766 85.6562 405.141 83.5938C403.453 82.9375 401.906 82.6094 400.5 82.6094ZM431.156 84.1562V72.7656H440.438V48.4375H452.391V72.7656H461.391V84.2969H452.391V124.656C452.391 131.312 455.109 135.016 460.547 135.766C461.578 135.953 462.609 136.047 463.641 136.047H465.609L468.281 148H463.219C451.688 147.906 444.609 143.594 441.984 135.062C441.047 131.875 440.578 127.938 440.578 123.25L440.438 84.1562H431.156Z" fill="#7A7878"/>
<rect x="83.5971" y="171" width="635.338" height="2" fill="#7A7878"/>
</svg>
