<?xml version="1.0" encoding="UTF-8" standalone="no"?>
<svg
   xmlns:dc="http://purl.org/dc/elements/1.1/"
   xmlns:cc="http://creativecommons.org/ns#"
   xmlns:rdf="http://www.w3.org/1999/02/22-rdf-syntax-ns#"
   xmlns:svg="http://www.w3.org/2000/svg"
   xmlns="http://www.w3.org/2000/svg"
   xmlns:sodipodi="http://sodipodi.sourceforge.net/DTD/sodipodi-0.dtd"
   xmlns:inkscape="http://www.inkscape.org/namespaces/inkscape"
   version="1.1"
   x="0px"
   y="0px"
   viewBox="0 0 24 24"
   style="enable-background:new 0 0 24 24;"
   xml:space="preserve"
   id="svg1359"
   sodipodi:docname="abelha.svg"
   inkscape:version="1.0 (4035a4fb49, 2020-05-01)"><metadata
   id="metadata1365"><rdf:RDF><cc:Work
       rdf:about=""><dc:format>image/svg+xml</dc:format><dc:type
         rdf:resource="http://purl.org/dc/dcmitype/StillImage" /></cc:Work></rdf:RDF></metadata><defs
   id="defs1363" /><sodipodi:namedview
   inkscape:document-rotation="0"
   pagecolor="#ffffff"
   bordercolor="#666666"
   borderopacity="1"
   objecttolerance="10"
   gridtolerance="10"
   guidetolerance="10"
   inkscape:pageopacity="0"
   inkscape:pageshadow="2"
   inkscape:window-width="1920"
   inkscape:window-height="1080"
   id="namedview1361"
   showgrid="false"
   inkscape:zoom="37.166667"
   inkscape:cx="12"
   inkscape:cy="12"
   inkscape:window-x="0"
   inkscape:window-y="0"
   inkscape:window-maximized="1"
   inkscape:current-layer="svg1359" />
<style
   type="text/css"
   id="style1311">
	.st0{fill:#FFFFFF;}
	.st1{fill:#B07DFB;}
	.st2{fill:none;stroke:#8844EE;stroke-linecap:round;stroke-linejoin:round;stroke-miterlimit:10;}
	.st3{fill:none;}
</style>
<g
   id="Duotone"
   style="stroke:#5f6769;stroke-opacity:1;fill:none">
	<g
   id="g1319"
   style="stroke:#5f6769;stroke-opacity:1;fill:none">
		<polygon
   class="st0"
   points="4.8,5.5 1.5,9.5 4.8,13.5 7,13.5 11.5,9.5 7,5.5   "
   id="polygon1313"
   style="stroke:#5f6769;stroke-opacity:1;fill:none" />
		<polygon
   class="st0"
   points="7.5,19.5 11.5,22 15.5,19.5 15.5,13.1 11.5,9.5 7.5,13.1   "
   id="polygon1315"
   style="stroke:#5f6769;stroke-opacity:1;fill:none" />
		<polygon
   class="st0"
   points="18.3,5.5 16,5.5 11.5,9.5 16,13.5 18.3,13.5 21.5,9.5   "
   id="polygon1317"
   style="stroke:#5f6769;stroke-opacity:1;fill:none" />
	</g>
	<rect
   x="7.5"
   y="12.5"
   class="st1"
   width="8"
   height="3"
   id="rect1321"
   style="stroke:#5f6769;stroke-opacity:1;fill:none" />
	<polygon
   class="st1"
   points="15.5,19.5 11.5,22 7.5,19.5 7.5,18.5 15.5,18.5  "
   id="polygon1323"
   style="stroke:#5f6769;stroke-opacity:1;fill:none" />
	<polygon
   class="st1"
   points="14.7,6.7 11.5,3.8 11.5,3.8 8.3,6.7 11.5,9.5  "
   id="polygon1325"
   style="stroke:#5f6769;stroke-opacity:1;fill:none" />
	<g
   id="g1329"
   style="stroke:#5f6769;stroke-opacity:1;fill:none">
		<polygon
   class="st1"
   points="18.3,5.5 16,13.5 18.3,13.5 21.5,9.5   "
   id="polygon1327"
   style="stroke:#5f6769;stroke-opacity:1;fill:none" />
	</g>
	<g
   id="g1333"
   style="stroke:#5f6769;stroke-opacity:1;fill:none">
		<polygon
   class="st1"
   points="7,5.5 4.5,13.5 7,13.5 11.5,9.5   "
   id="polygon1331"
   style="stroke:#5f6769;stroke-opacity:1;fill:none" />
	</g>
	<polygon
   class="st2"
   points="7,5.5 11.5,9.5 7,13.5 4.8,13.5 1.5,9.5 4.8,5.5  "
   id="polygon1335"
   style="stroke:#5f6769;stroke-opacity:1;fill:none" />
	<polyline
   class="st2"
   points="8.3,6.7 14,1.5 15,1.5  "
   id="polyline1337"
   style="stroke:#5f6769;stroke-opacity:1;fill:none" />
	<polyline
   class="st2"
   points="14.7,6.7 9,1.5 8,1.5  "
   id="polyline1339"
   style="stroke:#5f6769;stroke-opacity:1;fill:none" />
	<polygon
   class="st2"
   points="14.7,6.7 11.5,3.8 11.5,3.8 8.3,6.7 11.5,9.5  "
   id="polygon1341"
   style="stroke:#5f6769;stroke-opacity:1;fill:none" />
	<polyline
   class="st2"
   points="7.5,13.1 7.5,19.5 11.5,22 15.5,19.5 15.5,13.1  "
   id="polyline1343"
   style="stroke:#5f6769;stroke-opacity:1;fill:none" />
	<line
   class="st2"
   x1="11.5"
   y1="23.5"
   x2="11.5"
   y2="22"
   id="line1345"
   style="stroke:#5f6769;stroke-opacity:1;fill:none" />
	<line
   class="st2"
   x1="7.5"
   y1="18.5"
   x2="15.5"
   y2="18.5"
   id="line1347"
   style="stroke:#5f6769;stroke-opacity:1;fill:none" />
	<line
   class="st2"
   x1="7.5"
   y1="15.5"
   x2="15.5"
   y2="15.5"
   id="line1349"
   style="stroke:#5f6769;stroke-opacity:1;fill:none" />
	<line
   class="st2"
   x1="8.1"
   y1="12.5"
   x2="14.9"
   y2="12.5"
   id="line1351"
   style="stroke:#5f6769;stroke-opacity:1;fill:none" />
	<polygon
   class="st2"
   points="16,5.5 11.5,9.5 16,13.5 18.3,13.5 21.5,9.5 18.3,5.5  "
   id="polygon1353"
   style="stroke:#5f6769;stroke-opacity:1;fill:none" />
</g>

</svg>
