<?xml version="1.0" encoding="UTF-8" standalone="no"?>
<svg
   xmlns:dc="http://purl.org/dc/elements/1.1/"
   xmlns:cc="http://creativecommons.org/ns#"
   xmlns:rdf="http://www.w3.org/1999/02/22-rdf-syntax-ns#"
   xmlns:svg="http://www.w3.org/2000/svg"
   xmlns="http://www.w3.org/2000/svg"
   xmlns:sodipodi="http://sodipodi.sourceforge.net/DTD/sodipodi-0.dtd"
   xmlns:inkscape="http://www.inkscape.org/namespaces/inkscape"
   inkscape:version="1.0 (4035a4fb49, 2020-05-01)"
   sodipodi:docname="cervo.svg"
   id="svg1405"
   xml:space="preserve"
   style="enable-background:new 0 0 24 24;"
   viewBox="0 0 24 24"
   y="0px"
   x="0px"
   version="1.1"><metadata
   id="metadata1411"><rdf:RDF><cc:Work
       rdf:about=""><dc:format>image/svg+xml</dc:format><dc:type
         rdf:resource="http://purl.org/dc/dcmitype/StillImage" /></cc:Work></rdf:RDF></metadata><defs
   id="defs1409" /><sodipodi:namedview
   inkscape:current-layer="svg1405"
   inkscape:window-maximized="1"
   inkscape:window-y="0"
   inkscape:window-x="0"
   inkscape:cy="12"
   inkscape:cx="12"
   inkscape:zoom="37.166667"
   showgrid="false"
   id="namedview1407"
   inkscape:window-height="1080"
   inkscape:window-width="1920"
   inkscape:pageshadow="2"
   inkscape:pageopacity="0"
   guidetolerance="10"
   gridtolerance="10"
   objecttolerance="10"
   borderopacity="1"
   bordercolor="#666666"
   pagecolor="#ffffff" />
<style
   id="style1367"
   type="text/css">
	.st0{fill:#FFFFFF;}
	.st1{fill:#B07DFB;}
	.st2{fill:none;stroke:#8844EE;stroke-linecap:round;stroke-linejoin:round;stroke-miterlimit:10;}
	.st3{fill:none;}
</style>
<g
   style="fill:none;stroke:#5f6769;stroke-opacity:1;fill-opacity:1"
   id="Duotone">
	<polygon
   style="fill:none;stroke:#5f6769;stroke-opacity:1;fill-opacity:1"
   id="polygon1369"
   points="16.5,13.5 16.5,12.5 11.5,10.5 6.5,12.5 6.5,13.5 3.5,12.5 4,14.5 6.5,15.5 6.5,16.5 8.5,18.5    8.5,21.5 11.5,23.5 14.5,21.5 14.5,18.5 16.5,16.5 16.5,15.5 19,14.5 19.5,12.5  "
   class="st0" />
	<polygon
   style="fill:none;stroke:#5f6769;stroke-opacity:1;fill-opacity:1"
   id="polygon1371"
   points="6.5,16.5 9.5,16.5 10.5,18 10.5,20.5 11.5,21.5 12.5,20.5 12.5,18 13.5,16.5 16.5,16.5 14.5,18.5    14.5,21.5 11.5,23.5 8.5,21.5 8.5,18.5  "
   class="st1" />
	<polyline
   style="fill:none;stroke:#5f6769;stroke-opacity:1;fill-opacity:1"
   id="polyline1373"
   points="6.5,12.5 2,8 0.5,2.5  "
   class="st2" />
	<polygon
   style="fill:none;stroke:#5f6769;stroke-opacity:1;fill-opacity:1"
   id="polygon1375"
   points="14.5,21.5 11.5,23.5 8.5,21.5 8.5,18.5 6.5,16.5 6.5,12.5 11.5,10.5 16.5,12.5 16.5,16.5 14.5,18.5     "
   class="st2" />
	<line
   style="fill:none;stroke:#5f6769;stroke-opacity:1;fill-opacity:1"
   id="line1377"
   y2="15.5"
   x2="9.5"
   y1="14.5"
   x1="9.5"
   class="st2" />
	<line
   style="fill:none;stroke:#5f6769;stroke-opacity:1;fill-opacity:1"
   id="line1379"
   y2="15.5"
   x2="13.5"
   y1="14.5"
   x1="13.5"
   class="st2" />
	<line
   style="fill:none;stroke:#5f6769;stroke-opacity:1;fill-opacity:1"
   id="line1381"
   y2="23.5"
   x2="11.5"
   y1="21.5"
   x1="11.5"
   class="st2" />
	<polyline
   style="fill:none;stroke:#5f6769;stroke-opacity:1;fill-opacity:1"
   id="polyline1383"
   points="6.5,13.5 3.5,12.5 4,14.5 6.5,15.5  "
   class="st2" />
	<polyline
   style="fill:none;stroke:#5f6769;stroke-opacity:1;fill-opacity:1"
   id="polyline1385"
   points="16.5,13.5 19.5,12.5 19,14.5 16.5,15.5  "
   class="st2" />
	<polyline
   style="fill:none;stroke:#5f6769;stroke-opacity:1;fill-opacity:1"
   id="polyline1387"
   points="5.5,11.5 5.5,8.5 7,6.5  "
   class="st2" />
	<polyline
   style="fill:none;stroke:#5f6769;stroke-opacity:1;fill-opacity:1"
   id="polyline1389"
   points="2,8 3.5,4.5 6.5,2.5  "
   class="st2" />
	<polyline
   style="fill:none;stroke:#5f6769;stroke-opacity:1;fill-opacity:1"
   id="polyline1391"
   points="4.5,10.5 1,10.5 0.5,9.5  "
   class="st2" />
	<polyline
   style="fill:none;stroke:#5f6769;stroke-opacity:1;fill-opacity:1"
   id="polyline1393"
   points="16.5,12.5 21,8 22.5,2.5  "
   class="st2" />
	<polyline
   style="fill:none;stroke:#5f6769;stroke-opacity:1;fill-opacity:1"
   id="polyline1395"
   points="17.5,11.5 17.5,8.5 16,6.5  "
   class="st2" />
	<polyline
   style="fill:none;stroke:#5f6769;stroke-opacity:1;fill-opacity:1"
   id="polyline1397"
   points="21,8 19.5,4.5 16.5,2.5  "
   class="st2" />
	<polyline
   style="fill:none;stroke:#5f6769;stroke-opacity:1;fill-opacity:1"
   id="polyline1399"
   points="18.5,10.5 22,10.5 22.5,9.5  "
   class="st2" />
</g>
<g
   id="Frames-24px">
	<rect
   id="rect1402"
   height="24"
   width="24"
   class="st3" />
</g>
</svg>
