<?xml version="1.0" encoding="UTF-8" standalone="no"?>
<svg
   xmlns:dc="http://purl.org/dc/elements/1.1/"
   xmlns:cc="http://creativecommons.org/ns#"
   xmlns:rdf="http://www.w3.org/1999/02/22-rdf-syntax-ns#"
   xmlns:svg="http://www.w3.org/2000/svg"
   xmlns="http://www.w3.org/2000/svg"
   xmlns:sodipodi="http://sodipodi.sourceforge.net/DTD/sodipodi-0.dtd"
   xmlns:inkscape="http://www.inkscape.org/namespaces/inkscape"
   version="1.1"
   x="0px"
   y="0px"
   viewBox="0 0 24 24"
   style="enable-background:new 0 0 24 24;"
   xml:space="preserve"
   id="svg1449"
   sodipodi:docname="gato.svg"
   inkscape:version="1.0 (4035a4fb49, 2020-05-01)"><metadata
   id="metadata1455"><rdf:RDF><cc:Work
       rdf:about=""><dc:format>image/svg+xml</dc:format><dc:type
         rdf:resource="http://purl.org/dc/dcmitype/StillImage" /></cc:Work></rdf:RDF></metadata><defs
   id="defs1453" /><sodipodi:namedview
   inkscape:document-rotation="0"
   pagecolor="#ffffff"
   bordercolor="#666666"
   borderopacity="1"
   objecttolerance="10"
   gridtolerance="10"
   guidetolerance="10"
   inkscape:pageopacity="0"
   inkscape:pageshadow="2"
   inkscape:window-width="1920"
   inkscape:window-height="1080"
   id="namedview1451"
   showgrid="false"
   inkscape:zoom="37.166667"
   inkscape:cx="12"
   inkscape:cy="12"
   inkscape:window-x="0"
   inkscape:window-y="0"
   inkscape:window-maximized="1"
   inkscape:current-layer="svg1449" />
<style
   type="text/css"
   id="style1413">
	.st0{fill:#FFFFFF;}
	.st1{fill:#B07DFB;}
	.st2{fill:none;stroke:#8844EE;stroke-linecap:round;stroke-linejoin:round;stroke-miterlimit:10;}
	.st3{fill:none;}
</style>
<g
   id="Duotone"
   style="fill:none;stroke:#5f6769;stroke-opacity:1">
	<polygon
   class="st0"
   points="8,4.5 3.5,1.5 3.5,12 1.5,19 11.5,22.5 21.5,19 19.5,12 19.5,1.5 15,4.5  "
   id="polygon1415"
   style="fill:none;stroke:#5f6769;stroke-opacity:1" />
	<polygon
   class="st1"
   points="1.5,19 4,17.5 11.5,20 20,17.5 21.5,19 11.5,22.5  "
   id="polygon1417"
   style="fill:none;stroke:#5f6769;stroke-opacity:1" />
	<polyline
   class="st1"
   points="8,4.5 9.5,8.5 11.5,4.5  "
   id="polyline1419"
   style="fill:none;stroke:#5f6769;stroke-opacity:1" />
	<polyline
   class="st1"
   points="11.5,4.5 13.5,8.5 15,4.5  "
   id="polyline1421"
   style="fill:none;stroke:#5f6769;stroke-opacity:1" />
	<polyline
   class="st2"
   points="8,4.5 9.5,8.5 11.5,4.5  "
   id="polyline1423"
   style="fill:none;stroke:#5f6769;stroke-opacity:1" />
	<polyline
   class="st2"
   points="11.5,4.5 13.5,8.5 15,4.5  "
   id="polyline1425"
   style="fill:none;stroke:#5f6769;stroke-opacity:1" />
	<line
   class="st2"
   x1="11.5"
   y1="22.5"
   x2="11.5"
   y2="17.5"
   id="line1427"
   style="fill:none;stroke:#5f6769;stroke-opacity:1" />
	<polyline
   class="st2"
   points="9,15.5 11.5,17.5 14,15.5  "
   id="polyline1429"
   style="fill:none;stroke:#5f6769;stroke-opacity:1" />
	<line
   class="st2"
   x1="8.5"
   y1="10.5"
   x2="8.5"
   y2="11.5"
   id="line1431"
   style="fill:none;stroke:#5f6769;stroke-opacity:1" />
	<line
   class="st2"
   x1="14.5"
   y1="10.5"
   x2="14.5"
   y2="11.5"
   id="line1433"
   style="fill:none;stroke:#5f6769;stroke-opacity:1" />
	<line
   class="st2"
   x1="17.5"
   y1="15.5"
   x2="22.5"
   y2="13.5"
   id="line1435"
   style="fill:none;stroke:#5f6769;stroke-opacity:1" />
	<line
   class="st2"
   x1="18"
   y1="17.5"
   x2="22.5"
   y2="16.5"
   id="line1437"
   style="fill:none;stroke:#5f6769;stroke-opacity:1" />
	<polygon
   class="st2"
   points="8,4.5 3.5,1.5 3.5,12 1.5,19 11.5,22.5 21.5,19 19.5,12 19.5,1.5 15,4.5  "
   id="polygon1439"
   style="fill:none;stroke:#5f6769;stroke-opacity:1" />
	<line
   class="st2"
   x1="5.5"
   y1="15.5"
   x2="0.5"
   y2="13.5"
   id="line1441"
   style="fill:none;stroke:#5f6769;stroke-opacity:1" />
	<line
   class="st2"
   x1="5"
   y1="17.5"
   x2="0.5"
   y2="16.5"
   id="line1443"
   style="fill:none;stroke:#5f6769;stroke-opacity:1" />
</g>

</svg>
