<?xml version="1.0" encoding="UTF-8" standalone="no"?>
<svg
   xmlns:dc="http://purl.org/dc/elements/1.1/"
   xmlns:cc="http://creativecommons.org/ns#"
   xmlns:rdf="http://www.w3.org/1999/02/22-rdf-syntax-ns#"
   xmlns:svg="http://www.w3.org/2000/svg"
   xmlns="http://www.w3.org/2000/svg"
   xmlns:sodipodi="http://sodipodi.sourceforge.net/DTD/sodipodi-0.dtd"
   xmlns:inkscape="http://www.inkscape.org/namespaces/inkscape"
   version="1.1"
   x="0px"
   y="0px"
   viewBox="0 0 24 24"
   style="enable-background:new 0 0 24 24;"
   xml:space="preserve"
   id="svg1481"
   sodipodi:docname="leao.svg"
   inkscape:version="1.0 (4035a4fb49, 2020-05-01)"><metadata
   id="metadata1487"><rdf:RDF><cc:Work
       rdf:about=""><dc:format>image/svg+xml</dc:format><dc:type
         rdf:resource="http://purl.org/dc/dcmitype/StillImage" /></cc:Work></rdf:RDF></metadata><defs
   id="defs1485" /><sodipodi:namedview
   inkscape:document-rotation="0"
   pagecolor="#ffffff"
   bordercolor="#666666"
   borderopacity="1"
   objecttolerance="10"
   gridtolerance="10"
   guidetolerance="10"
   inkscape:pageopacity="0"
   inkscape:pageshadow="2"
   inkscape:window-width="1920"
   inkscape:window-height="1080"
   id="namedview1483"
   showgrid="false"
   inkscape:zoom="37.166667"
   inkscape:cx="12"
   inkscape:cy="12"
   inkscape:window-x="0"
   inkscape:window-y="0"
   inkscape:window-maximized="1"
   inkscape:current-layer="svg1481" />
<style
   type="text/css"
   id="style1457">
	.st0{fill:#FFFFFF;}
	.st1{fill:#B07DFB;}
	.st2{fill:none;stroke:#8844EE;stroke-linecap:round;stroke-linejoin:round;stroke-miterlimit:10;}
	.st3{fill:none;}
</style>
<g
   id="Duotone"
   style="fill:none;stroke:#5f6769;stroke-opacity:1">
	<polygon
   class="st0"
   points="13.5,7.5 14,6.5 16,6 17,8 16,9.5 17.5,14 15.5,15 15.5,18 11.5,20 7.5,18 7.5,15 5.5,14 7,9.5 6,8    7,6 9,6.5 9.5,7.5  "
   id="polygon1459"
   style="fill:none;stroke:#5f6769;stroke-opacity:1" />
	<polygon
   class="st1"
   points="9.5,13.5 13.5,13.5 11.5,16  "
   id="polygon1461"
   style="fill:none;stroke:#5f6769;stroke-opacity:1" />
	<path
   class="st1"
   d="M21.5,3.5l-4,1.5L19,0.5L12.5,2l-1,2L10,2L4,0.5L5.5,5l-4-1.5l2,4l-2,6l6,8l4,2l4-2l6-8l-2-6L21.5,3.5z    M15.5,15v3l-4,2l-4-2v-3l-2-1L7,9.5L6,8l1-2l2,0.5l0.5,1h4l0.5-1L16,6l1,2l-1,1.5l1.5,4.5L15.5,15z"
   id="path1463"
   style="fill:none;stroke:#5f6769;stroke-opacity:1" />
	<polygon
   class="st2"
   points="13.5,7.5 14,6.5 16,6 17,8 16,9.5 17.5,14 15.5,15 15.5,18 11.5,20 7.5,18 7.5,15 5.5,14 7,9.5 6,8    7,6 9,6.5 9.5,7.5  "
   id="polygon1465"
   style="fill:none;stroke:#5f6769;stroke-opacity:1" />
	<polygon
   class="st2"
   points="11.5,4 12.5,2 19,0.5 17.5,5 21.5,3.5 19.5,7.5 21.5,13.5 15.5,21.5 11.5,23.5 7.5,21.5 1.5,13.5    3.5,7.5 1.5,3.5 5.5,5 4,0.5 10,2  "
   id="polygon1467"
   style="fill:none;stroke:#5f6769;stroke-opacity:1" />
	<line
   class="st2"
   x1="9.5"
   y1="10.5"
   x2="9.5"
   y2="11.5"
   id="line1469"
   style="fill:none;stroke:#5f6769;stroke-opacity:1" />
	<line
   class="st2"
   x1="13.5"
   y1="10.5"
   x2="13.5"
   y2="11.5"
   id="line1471"
   style="fill:none;stroke:#5f6769;stroke-opacity:1" />
	<polygon
   class="st2"
   points="9.5,13.5 13.5,13.5 11.5,16  "
   id="polygon1473"
   style="fill:none;stroke:#5f6769;stroke-opacity:1" />
	<line
   class="st2"
   x1="11.5"
   y1="16"
   x2="11.5"
   y2="17.5"
   id="line1475"
   style="fill:none;stroke:#5f6769;stroke-opacity:1" />
</g>

</svg>
