<?xml version="1.0" encoding="UTF-8" standalone="no"?>
<svg
   xmlns:dc="http://purl.org/dc/elements/1.1/"
   xmlns:cc="http://creativecommons.org/ns#"
   xmlns:rdf="http://www.w3.org/1999/02/22-rdf-syntax-ns#"
   xmlns:svg="http://www.w3.org/2000/svg"
   xmlns="http://www.w3.org/2000/svg"
   xmlns:xlink="http://www.w3.org/1999/xlink"
   xmlns:sodipodi="http://sodipodi.sourceforge.net/DTD/sodipodi-0.dtd"
   xmlns:inkscape="http://www.inkscape.org/namespaces/inkscape"
   version="1.1"
   x="0px"
   y="0px"
   viewBox="0 0 24 24"
   style="enable-background:new 0 0 24 24;"
   xml:space="preserve"
   id="svg1519"
   sodipodi:docname="ovelha.svg"
   inkscape:version="1.0 (4035a4fb49, 2020-05-01)"><metadata
   id="metadata1525"><rdf:RDF><cc:Work
       rdf:about=""><dc:format>image/svg+xml</dc:format><dc:type
         rdf:resource="http://purl.org/dc/dcmitype/StillImage" /></cc:Work></rdf:RDF></metadata><defs
   id="defs1523"><linearGradient
     inkscape:collect="always"
     id="linearGradient4383"><stop
       style="stop-color:#000000;stop-opacity:1;"
       offset="0"
       id="stop4379" /><stop
       style="stop-color:#000000;stop-opacity:0;"
       offset="1"
       id="stop4381" /></linearGradient><radialGradient
     inkscape:collect="always"
     xlink:href="#linearGradient4383"
     id="radialGradient4389"
     cx="12"
     cy="12"
     fx="12"
     fy="12"
     r="12"
     gradientUnits="userSpaceOnUse" /><radialGradient
     inkscape:collect="always"
     xlink:href="#linearGradient4383"
     id="radialGradient4391"
     cx="11.5"
     cy="12.000001"
     fx="11.5"
     fy="12.000001"
     r="10.499995"
     gradientTransform="matrix(1,0,0,1.1428571,0,-1.7142853)"
     gradientUnits="userSpaceOnUse" /></defs><sodipodi:namedview
   inkscape:document-rotation="0"
   pagecolor="#ffffff"
   bordercolor="#666666"
   borderopacity="1"
   objecttolerance="10"
   gridtolerance="10"
   guidetolerance="10"
   inkscape:pageopacity="0"
   inkscape:pageshadow="2"
   inkscape:window-width="1920"
   inkscape:window-height="1080"
   id="namedview1521"
   showgrid="false"
   inkscape:zoom="37.166667"
   inkscape:cx="12"
   inkscape:cy="12"
   inkscape:window-x="0"
   inkscape:window-y="0"
   inkscape:window-maximized="1"
   inkscape:current-layer="svg1519" />
<style
   type="text/css"
   id="style1489">
	.st0{fill:#FFFFFF;}
	.st1{fill:#B07DFB;}
	.st2{fill:none;stroke:#8844EE;stroke-linecap:round;stroke-linejoin:round;stroke-miterlimit:10;}
	.st3{fill:none;}
</style>
<g
   id="Duotone"
   style="fill-opacity:1;fill:none;stroke:#5f6769;stroke-opacity:1">
	<path
   class="st0"
   d="M18.5,5.5l-0.5-3h-3l-3.5-2L8,2.5H5l-0.5,3l-3,1L2,10l2.5,1l1-0.5v10l6,3l6-3v-10l1,0.5l2.5-1l0.5-4L18.5,5.5z   "
   id="path1491"
   style="fill-opacity:1;fill:none;stroke:#5f6769;stroke-opacity:1" />
	<polyline
   class="st0"
   points="5.5,13.5 3.5,13.5 1.5,16.5 3.5,16.5 5.5,15.5  "
   id="polyline1493"
   style="fill-opacity:1;fill:none;stroke:#5f6769;stroke-opacity:1" />
	<polyline
   class="st0"
   points="17.5,13.5 19.5,13.5 21.5,16.5 19.5,16.5 17.5,15.5  "
   id="polyline1495"
   style="fill-opacity:1;fill:none;stroke:#5f6769;stroke-opacity:1" />
	<polygon
   class="st1"
   points="17.5,10.5 16.5,10 14,11 11.5,10 9,11 6.5,10 5.5,10.5 5.5,13 6.5,12.5 9,13.5 11.5,12.5 14,13.5    16.5,12.5 17.5,13  "
   id="polygon1497"
   style="fill-opacity:1;fill:none;stroke:#5f6769;stroke-opacity:1" />
	<polyline
   class="st2"
   points="17.5,10.5 17.5,20.5 11.5,23.5 5.5,20.5 5.5,10.5  "
   id="polyline1499"
   style="fill-opacity:1;fill:none;stroke:#5f6769;stroke-opacity:1" />
	<polygon
   class="st2"
   points="11.5,10 14,11 16.5,10 18.5,11 21,10 21.5,6 18.5,5.5 18,2.5 15,2.5 11.5,0.5 8,2.5 5,2.5 4.5,5.5    1.5,6.5 2,10 4.5,11 6.5,10 9,11  "
   id="polygon1501"
   style="fill-opacity:1;fill:none;stroke:#5f6769;stroke-opacity:1" />
	<line
   class="st2"
   x1="8.5"
   y1="15.5"
   x2="8.5"
   y2="14.5"
   id="line1503"
   style="fill-opacity:1;fill:none;stroke:#5f6769;stroke-opacity:1" />
	<line
   class="st2"
   x1="14.5"
   y1="15.5"
   x2="14.5"
   y2="14.5"
   id="line1505"
   style="fill-opacity:1;fill:none;stroke:#5f6769;stroke-opacity:1" />
	<polyline
   class="st2"
   points="5.5,13.5 3.5,13.5 1.5,16.5 3.5,16.5 5.5,15.5  "
   id="polyline1507"
   style="fill-opacity:1;fill:none;stroke:#5f6769;stroke-opacity:1" />
	<polyline
   class="st2"
   points="17.5,13.5 19.5,13.5 21.5,16.5 19.5,16.5 17.5,15.5  "
   id="polyline1509"
   style="fill-opacity:1;fill:none;stroke:#5f6769;stroke-opacity:1" />
	<line
   class="st2"
   x1="10.5"
   y1="18.5"
   x2="10.5"
   y2="19.5"
   id="line1511"
   style="fill-opacity:1;fill:none;stroke:#5f6769;stroke-opacity:1" />
	<line
   class="st2"
   x1="12.5"
   y1="18.5"
   x2="12.5"
   y2="19.5"
   id="line1513"
   style="fill-opacity:1;fill:none;stroke:#5f6769;stroke-opacity:1" />
</g>

</svg>
