<svg width="161" height="34" viewBox="0 0 161 34" fill="none" xmlns="http://www.w3.org/2000/svg">
<path d="M36.7393 3.3L29.4493 33H22.6993L18.3343 11.67L13.9693 33H7.21926L0.514258 3.3H5.82426L11.0893 29.625L16.3093 3.3H21.3043L26.5693 29.625L31.7893 3.3H36.7393ZM46.4434 9.15C49.8034 9.15 52.2934 10.245 53.9134 12.435C55.5334 14.595 56.3434 17.52 56.3434 21.21C56.3434 25.14 55.5634 28.26 54.0034 30.57C52.4434 32.85 49.9234 33.99 46.4434 33.99C43.0234 33.99 40.5184 32.895 38.9284 30.705C37.3684 28.515 36.5884 25.5 36.5884 21.66C36.5884 17.94 37.3984 14.925 39.0184 12.615C40.6384 10.305 43.1134 9.15 46.4434 9.15ZM46.4434 31.29C48.3034 31.29 49.5184 30.375 50.0884 28.545C50.6584 26.715 50.9434 24.345 50.9434 21.435C50.9434 18.765 50.6284 16.5 49.9984 14.64C49.3984 12.78 48.2134 11.85 46.4434 11.85C43.4734 11.85 41.9884 15.045 41.9884 21.435C41.9884 24.345 42.2584 26.715 42.7984 28.545C43.3684 30.375 44.5834 31.29 46.4434 31.29ZM65.7903 0.959999V29.31C65.7903 30.78 66.2553 31.77 67.1853 32.28C66.9453 32.73 66.5403 33.075 65.9703 33.315C65.4303 33.555 64.8603 33.675 64.2603 33.675C63.1203 33.675 62.2653 33.345 61.6953 32.685C61.1253 32.025 60.8403 31.095 60.8403 29.895V1.5L65.7903 0.959999ZM72.5382 33.54V12.075H69.3432V10.05H72.5382L72.6732 7.62C72.9432 2.94 75.6132 0.599999 80.6832 0.599999C82.5732 0.599999 84.1932 0.899998 85.5432 1.5C86.9232 2.07 87.6132 3.045 87.6132 4.425C87.6132 5.445 87.2982 6.225 86.6682 6.765C86.0382 7.305 85.1832 7.575 84.1032 7.575C83.3232 7.575 82.7232 7.41 82.3032 7.08C82.5432 6.36 82.6632 5.685 82.6632 5.055C82.6632 4.275 82.4682 3.675 82.0782 3.255C81.7182 2.805 81.1632 2.58 80.4132 2.58C79.2432 2.58 78.4482 3.03 78.0282 3.93C77.6382 4.8 77.4432 6.03 77.4432 7.62V10.05H82.3482V12.075H77.4882V33L72.5382 33.54ZM91.3246 6.045C91.3246 9.315 91.1746 11.715 90.8746 13.245C91.4446 11.985 92.2996 10.995 93.4396 10.275C94.5796 9.525 95.8396 9.15 97.2196 9.15C100.07 9.15 102.14 10.29 103.43 12.57C104.72 14.85 105.365 17.73 105.365 21.21C105.365 25.05 104.54 28.14 102.89 30.48C101.24 32.82 98.7046 33.99 95.2846 33.99C93.8146 33.99 92.2546 33.795 90.6046 33.405C88.9846 33.045 87.5746 32.535 86.3746 31.875V1.5L91.3246 0.959999V6.045ZM91.3246 29.94C92.6446 30.84 94.0396 31.29 95.5096 31.29C97.3396 31.29 98.5396 30.36 99.1096 28.5C99.6796 26.64 99.9646 24.285 99.9646 21.435C99.9646 18.885 99.6796 16.785 99.1096 15.135C98.5696 13.455 97.4446 12.615 95.7346 12.615C93.9946 12.615 92.8246 13.44 92.2246 15.09C91.6246 16.71 91.3246 18.78 91.3246 21.3V29.94ZM124.283 26.655C124.973 26.985 125.318 27.63 125.318 28.59C125.318 29.67 124.958 30.63 124.238 31.47C123.518 32.28 122.588 32.895 121.448 33.315C120.308 33.765 119.153 33.99 117.983 33.99C114.683 33.99 112.238 32.925 110.648 30.795C109.058 28.635 108.263 25.74 108.263 22.11C108.263 18.24 109.118 15.12 110.828 12.75C112.568 10.35 115.193 9.15 118.703 9.15C120.923 9.15 122.708 9.735 124.058 10.905C125.408 12.045 126.083 13.665 126.083 15.765C126.083 18.375 125.168 20.205 123.338 21.255C121.538 22.305 119.078 22.83 115.958 22.83C115.088 22.83 114.263 22.8 113.483 22.74C113.573 25.11 113.963 27 114.653 28.41C115.373 29.82 116.633 30.525 118.433 30.525C119.753 30.525 120.908 30.195 121.898 29.535C122.918 28.845 123.713 27.885 124.283 26.655ZM117.983 11.715C116.363 11.715 115.223 12.57 114.563 14.28C113.903 15.96 113.543 18.03 113.483 20.49C114.383 20.55 115.043 20.58 115.463 20.58C119.243 20.58 121.133 19.065 121.133 16.035C121.133 14.805 120.863 13.785 120.323 12.975C119.813 12.135 119.033 11.715 117.983 11.715ZM137.694 11.535C136.794 11.535 136.074 11.775 135.534 12.255C134.994 12.705 134.724 13.365 134.724 14.235C134.724 15.405 135.114 16.365 135.894 17.115C136.704 17.835 137.934 18.645 139.584 19.545C140.904 20.265 141.954 20.91 142.734 21.48C143.544 22.05 144.234 22.785 144.804 23.685C145.374 24.555 145.659 25.62 145.659 26.88C145.659 29.16 144.834 30.915 143.184 32.145C141.564 33.375 139.494 33.99 136.974 33.99C134.784 33.99 132.939 33.615 131.439 32.865C129.969 32.115 129.234 30.87 129.234 29.13C129.234 28.11 129.549 27.33 130.179 26.79C130.809 26.25 131.664 25.98 132.744 25.98C133.524 25.98 134.124 26.145 134.544 26.475C134.304 27.195 134.184 27.87 134.184 28.5C134.184 29.46 134.484 30.225 135.084 30.795C135.684 31.335 136.494 31.605 137.514 31.605C138.624 31.605 139.464 31.32 140.034 30.75C140.634 30.15 140.934 29.28 140.934 28.14C140.934 26.97 140.529 26.025 139.719 25.305C138.939 24.555 137.724 23.73 136.074 22.83C134.754 22.08 133.689 21.42 132.879 20.85C132.099 20.28 131.424 19.56 130.854 18.69C130.284 17.79 129.999 16.71 129.999 15.45C129.999 13.44 130.809 11.895 132.429 10.815C134.049 9.705 136.014 9.15 138.324 9.15C140.454 9.15 142.194 9.54 143.544 10.32C144.924 11.07 145.614 12.315 145.614 14.055C145.614 15.075 145.284 15.855 144.624 16.395C143.994 16.935 143.139 17.205 142.059 17.205C141.279 17.205 140.679 17.04 140.259 16.71C140.499 15.99 140.619 15.315 140.619 14.685C140.619 13.695 140.364 12.93 139.854 12.39C139.374 11.82 138.654 11.535 137.694 11.535ZM147.654 12.075L147.609 10.725C148.959 10.185 150.234 9.465 151.434 8.565C152.664 7.665 153.699 6.675 154.539 5.595H155.934V10.05H160.074V12.075H155.844V28.455C155.844 29.355 156.009 30.03 156.339 30.48C156.669 30.93 157.194 31.215 157.914 31.335C157.764 32.025 157.359 32.58 156.699 33C156.069 33.45 155.334 33.675 154.494 33.675C152.064 33.675 150.849 32.295 150.849 29.535V12.075H147.654Z" fill="white"/>
</svg>
